<?xml version="1.0" encoding="UTF-8"?>
<!DOCTYPE svg PUBLIC "-//W3C//DTD SVG 1.1//EN" "http://www.w3.org/Graphics/SVG/1.1/DTD/svg11.dtd">
<svg xmlns="http://www.w3.org/2000/svg" version="1.1" width="512px" height="512px" style="shape-rendering:geometricPrecision; text-rendering:geometricPrecision; image-rendering:optimizeQuality; fill-rule:evenodd; clip-rule:evenodd" xmlns:xlink="http://www.w3.org/1999/xlink">
<g><path style="opacity:0.969" fill="#C446FF" d="M 106.5,32.5 C 136.39,33.408 163.557,42.408 188,59.5C 230.465,50.2332 272.965,50.2332 315.5,59.5C 339.862,42.7126 366.862,33.7126 396.5,32.5C 399.37,44.0156 401.536,55.6823 403,67.5C 403.553,79.1987 403.553,90.8654 403,102.5C 429.249,137.489 439.582,176.822 434,220.5C 433.047,227.549 431.881,234.549 430.5,241.5C 456.882,241.121 483.216,241.955 509.5,244C 510.554,245.388 510.72,246.888 510,248.5C 482.559,249.196 455.059,250.029 427.5,251C 426.663,252.011 426.33,253.178 426.5,254.5C 452.559,254.081 478.226,256.914 503.5,263C 505.155,264.444 505.822,266.278 505.5,268.5C 489.52,266.622 473.52,264.789 457.5,263C 445.85,261.834 434.183,261.501 422.5,262C 407.963,287.537 386.963,305.537 359.5,316C 345.36,320.784 331.027,324.784 316.5,328C 324.136,336.774 328.969,346.941 331,358.5C 332.078,392.158 332.744,425.824 333,459.5C 335.039,466.046 338.539,471.712 343.5,476.5C 330.344,478.035 318.01,475.535 306.5,469C 303.567,466.736 301.4,463.902 300,460.5C 298.192,432.558 297.192,404.558 297,376.5C 296.71,374.956 296.044,373.623 295,372.5C 293.416,399.808 293.083,427.141 294,454.5C 293.117,463.656 295.617,471.656 301.5,478.5C 285.135,482.436 271.969,477.77 262,464.5C 260.732,433.514 260.232,402.514 260.5,371.5C 259.167,371.5 257.833,371.5 256.5,371.5C 256.733,401.846 256.233,432.179 255,462.5C 254.146,469.025 250.646,473.525 244.5,476C 234.76,479.536 224.76,480.37 214.5,478.5C 216.473,475.36 218.64,472.36 221,469.5C 221.204,444.487 221.704,419.487 222.5,394.5C 221.816,387.181 221.316,379.848 221,372.5C 218.063,375.884 216.729,379.884 217,384.5C 216.945,410.868 216.278,437.202 215,463.5C 212.038,469.792 207.205,473.959 200.5,476C 192.049,479.246 183.382,480.079 174.5,478.5C 176.483,476.016 178.65,473.683 181,471.5C 182.75,468.754 183.75,465.754 184,462.5C 184.5,441.836 184.667,421.169 184.5,400.5C 171.829,400.667 159.162,400.5 146.5,400C 129.501,397.677 116.001,389.51 106,375.5C 97.2502,360.998 88.2502,346.665 79,332.5C 73.3094,326.309 67.1427,320.642 60.5,315.5C 70.6441,313.878 80.3107,315.378 89.5,320C 101.75,328.912 113.417,338.579 124.5,349C 129.334,352.252 134.334,355.252 139.5,358C 154.061,360.152 168.728,360.986 183.5,360.5C 185.788,346.755 192.122,335.255 202.5,326C 176.762,322.198 152.428,314.198 129.5,302C 112.833,292 99.5,278.667 89.5,262C 77.8166,261.501 66.1499,261.834 54.5,263C 38.4801,264.789 22.4801,266.622 6.5,268.5C 6.17798,266.278 6.84464,264.444 8.5,263C 21.9548,259.48 35.6215,257.146 49.5,256C 61.5156,255.366 73.5156,254.533 85.5,253.5C 84.6364,251.803 83.3031,250.637 81.5,250C 54.8333,249.667 28.1667,249.333 1.5,249C 0.00905725,246.978 0.342391,245.312 2.5,244C 28.4474,241.965 54.4474,241.131 80.5,241.5C 70.4841,207.552 71.3175,173.885 83,140.5C 88.4205,129.316 95.0872,118.983 103,109.5C 98.8154,83.5981 99.9821,57.9315 106.5,32.5 Z M 100.5,338.5 C 101.376,338.369 102.043,338.702 102.5,339.5C 100.192,340.873 99.5249,340.54 100.5,338.5 Z M 107.5,347.5 C 108.978,347.238 110.311,347.571 111.5,348.5C 110.833,348.833 110.167,349.167 109.5,349.5C 108.287,349.253 107.62,348.586 107.5,347.5 Z M 116.5,355.5 C 118.429,355.231 120.095,355.731 121.5,357C 120.07,358.44 118.403,358.774 116.5,358C 115.402,357.23 115.402,356.397 116.5,355.5 Z M 129.5,363.5 C 130.833,363.5 132.167,363.5 133.5,363.5C 133.5,364.5 133.5,365.5 133.5,366.5C 131.25,366.819 129.25,366.319 127.5,365C 128.416,364.722 129.082,364.222 129.5,363.5 Z M 144.5,367.5 C 148.181,367.718 148.848,368.884 146.5,371C 142.447,371.468 141.78,370.302 144.5,367.5 Z M 159.5,368.5 C 161.167,368.5 162.833,368.5 164.5,368.5C 163.843,373.312 161.843,373.812 158.5,370C 159.056,369.617 159.389,369.117 159.5,368.5 Z M 176.5,368.5 C 178.8,368.522 179.967,369.522 180,371.5C 177.761,372.869 175.927,372.369 174.5,370C 175.416,369.722 176.082,369.222 176.5,368.5 Z"/></g>
</svg>
