<svg width="43" height="42" viewBox="0 0 43 42" fill="none" xmlns="http://www.w3.org/2000/svg">
<path d="M33.4879 0.16831C28.0041 0.12326 22.5092 -0.0911595 17.0141 0.0442372C10.6502 0.202282 5.68558 0.585824 1.9282 5.67477C0.946446 8.10059 0.450155 10.9328 0.213087 13.8892C0.168037 14.6678 0.122742 15.4689 0.0663674 16.2926C-0.136728 21.3136 0.201764 26.4929 0.0890153 30.5998C0.619278 33.2967 1.6574 35.7225 3.59825 37.573C10.0298 43.6998 23.1185 41.793 31.6938 41.4545C35.8123 39.9538 39.2423 38.7126 41.0815 34.0074C42.5371 30.3064 42.3001 25.5899 42.4017 21.6184C42.5935 13.4488 42.9546 2.17686 33.4879 0.16831Z" fill="black"/>
<path d="M30.9719 3.07941C41.928 4.48975 38.7124 20.3656 38.4076 28.0608C38.2383 32.2921 37.4825 35.5643 33.1158 37.031C27.3726 38.9605 18.91 38.3173 13.054 37.4598C9.13857 36.8956 6.06949 35.7221 4.98632 31.6602C3.27121 25.2399 3.75642 16.5516 4.5011 10.0073C4.52375 9.88322 4.55748 9.79287 4.61385 9.71385C4.71528 -0.0797634 25.2737 2.34605 30.9719 3.07941Z" fill="#AD00FF"/>
<path d="M35.5189 9.04844C35.5416 6.35158 32.179 5.49415 30.3736 7.15288C29.8884 7.60413 29.6626 8.29243 29.6289 9.03711C29.8094 9.99622 30.3849 10.944 31.1296 11.4856C32.8787 12.7155 35.4963 11.0794 35.5189 9.04844Z" fill="black"/>
<path d="M30.5203 14.2949C26.6615 8.45018 17.9506 7.87462 13.2681 13.0537C10.0749 16.5853 9.84917 22.464 12.2526 26.6389C12.388 26.6839 12.5121 26.763 12.625 26.8983C16.5291 31.2537 23.2539 32.8334 28.0834 28.8843C32.3935 25.3526 33.6571 19.0451 30.5203 14.2949Z" fill="black"/>
<path d="M15.1413 22.3062C16.5065 26.1426 21.3584 29.189 25.2286 26.8196C33.0478 22.0354 23.8633 9.03708 17.4204 14.8028C15.1413 16.1454 14.2499 19.7898 15.1413 22.3062Z" fill="#AD00FF"/>
</svg>
